Coordinates
version=1
nRows=7
nColumns=63
inDegrees=yes

Units are S.I. units (second, meters, Newtons, ...)
If the header above contains a line with 'inDegrees', this indicates whether rotational values are in degrees (yes) or radians (no).

endheader
time	pelvis_tilt	pelvis_list	pelvis_rotation	pelvis_tx	pelvis_ty	pelvis_tz	hip_flexion_r	hip_adduction_r	hip_rotation_r	knee_angle_r	knee_angle_r_beta	ankle_angle_r	subtalar_angle_r	mtp_angle_r	hip_flexion_l	hip_adduction_l	hip_rotation_l	knee_angle_l	knee_angle_l_beta	ankle_angle_l	subtalar_angle_l	mtp_angle_l	L5_S1_Flex_Ext	L5_S1_Lat_Bending	L5_S1_axial_rotation	L4_L5_Flex_Ext	L4_L5_Lat_Bending	L4_L5_axial_rotation	L3_L4_Flex_Ext	L3_L4_Lat_Bending	L3_L4_axial_rotation	L2_L3_Flex_Ext	L2_L3_Lat_Bending	L2_L3_axial_rotation	L1_L2_Flex_Ext	L1_L2_Lat_Bending	L1_L2_axial_rotation	L1_T12_Flex_Ext	L1_T12_Lat_Bending	L1_T12_axial_rotation	Abs_r3	Abs_r2	Abs_r1	Abs_t1	Abs_t2	neck_flexion	neck_bending	neck_rotation	arm_flex_r	arm_add_r	arm_rot_r	elbow_flex_r	pro_sup_r	wrist_flex_r	wrist_dev_r	arm_flex_l	arm_add_l	arm_rot_l	elbow_flex_l	pro_sup_l	wrist_flex_l	wrist_dev_l
      3.29629630	      1.27704099	     -4.14815444	     88.48286846	      0.19259774	      0.62435313	      0.60898456	      4.74704267	      2.91016048	    -18.45532487	      3.37212527	      0.05885469	     22.48821584	     11.81675660	      0.00000000	      2.80053453	     -2.17942714	      5.23472039	      0.57579089	      0.01004945	     23.16825520	     -1.21996940	      0.00000000	      0.01606461	      0.79695926	     -0.59917222	      0.02983358	      1.05995581	     -0.63662048	      0.02639255	      1.93772674	     -0.63662048	      0.01836024	      1.93772674	     -0.52427569	      0.01491760	      1.62515932	     -0.48682743	      0.00917932	      1.23448989	     -0.44937916	      0.11474789	      9.01536251	     -3.33241612	      0.00000000	      0.00000000	     27.58392102	     -2.31774991	      5.74918693	      2.62150829	    -13.08365571	     29.88477325	     32.39909548	     85.36455633	     -2.97716683	     -7.67677923	      7.26069290	     -7.72297176	     42.93196476	     44.92014477	     87.81838006	     -9.70037327	      4.05029785
      3.31481481	      0.97235494	     -3.87684804	     88.85455401	      0.19321725	      0.62513175	      0.60732578	      4.14306477	      2.68108470	    -18.39202504	      2.99514952	      0.05227522	     22.29029310	     11.58941005	      0.00000000	      2.40504840	     -1.88598675	      5.11945950	      0.58010023	      0.01012466	     22.50825247	     -1.28256196	      0.00000000	     -0.01757291	      0.72214655	     -0.63048242	     -0.03263465	      0.96045491	     -0.66988757	     -0.02887053	      1.75582712	     -0.66988757	     -0.02008408	      1.75582712	     -0.55167211	     -0.01631820	      1.47260125	     -0.51226696	     -0.01004116	      1.11860501	     -0.47286181	     -0.12552153	      8.16906622	     -3.50655406	      0.00000000	      0.00000000	     27.25151790	     -1.65969063	      4.39818843	      3.74803144	    -12.99099784	     33.15302678	     31.43203729	     85.10954032	     -1.05352725	     -6.53967478	      7.54724003	     -7.56190718	     43.94524539	     42.57035567	     87.63957570	     -9.63366050	      5.25063137
      3.33333333	      0.63900487	     -3.71946515	     89.41149902	      0.19358235	      0.62578014	      0.60613826	      3.60622009	      2.49965469	    -16.47685465	      2.44124579	      0.04260778	     21.49033489	      8.55665272	      0.00000000	      2.15648341	     -1.55927158	      5.49340734	      0.59720347	      0.01042317	     21.42123506	     -2.04536883	      0.00000000	     -0.03062038	      0.64719955	     -0.71336941	     -0.05686512	      0.86077540	     -0.75795500	     -0.05030623	      1.57360098	     -0.75795500	     -0.03499604	      1.57360098	     -0.62419824	     -0.02843409	      1.31976932	     -0.57961265	     -0.01749649	      1.00251210	     -0.53502706	     -0.21871834	      7.32125073	     -3.96754666	      0.00000000	      0.00000000	     26.88372138	     -0.96864191	      3.35350456	      5.96846137	    -13.56697041	     42.79022854	     29.99300731	     77.65545470	     -0.77118872	     -7.34132823	      7.81023013	     -7.64442366	     45.43989463	     40.52385059	     87.38066657	     -9.93626292	      6.31138971
      3.35185185	      0.33488435	     -3.71277020	     89.85749643	      0.19390520	      0.62603438	      0.60543567	      3.30718961	      2.32526960	    -14.42102479	      2.00103358	      0.03492462	     20.64691067	      5.36734131	      0.00000000	      2.08117145	     -1.25661591	      5.61302995	      0.63682697	      0.01111473	     20.31623990	     -2.77708941	      0.00000000	     -0.02296420	      0.58121834	     -0.69704130	     -0.04264681	      0.77302039	     -0.74060638	     -0.03772788	      1.41317427	     -0.74060638	     -0.02624578	      1.41317427	     -0.60991113	     -0.02132455	      1.18522044	     -0.56634605	     -0.01312174	      0.90030721	     -0.52278097	     -0.16403097	      6.57485809	     -3.87673457	      0.00000000	      0.00000000	     26.75791279	     -0.62640985	      2.00519319	      7.39312464	    -13.98778543	     49.17241170	     29.60305972	     72.78509274	      0.32640230	     -7.38287282	      8.43510589	     -7.80383719	     48.30827498	     38.48826304	     87.18390814	     -9.74319637	      7.23385236
      3.37037037	      0.05083447	     -3.89819641	     90.03213173	      0.19434553	      0.62585765	      0.60530443	      3.38868187	      2.09355785	    -13.74851513	      1.83715705	      0.03206444	     20.29190490	      4.37569066	      0.00000000	      2.22286190	     -0.97367684	      5.25409501	      0.68384625	      0.01193537	     19.37811142	     -3.14240457	      0.00000000	      0.00633613	      0.52262297	     -0.57878979	      0.01176683	      0.69508855	     -0.61496415	      0.01040963	      1.27070550	     -0.61496415	      0.00724156	      1.27070550	     -0.50644106	      0.00588373	      1.06573277	     -0.47026670	      0.00362047	      0.80954299	     -0.43409234	      0.04525835	      5.91201560	     -3.21905517	      0.00000000	      0.00000000	     26.97034337	     -0.64785645	      0.42590946	      7.74523955	    -14.31631378	     50.92486985	     30.25887422	     71.73353259	      1.73210000	     -6.96817337	      9.37326814	     -7.92672901	     52.33370206	     36.42006065	     87.22964171	     -8.61247370	      8.40918208
      3.38888889	     -0.21858882	     -4.16989033	     90.05485404	      0.19487973	      0.62543806	      0.60544412	      3.52069387	      1.94660354	    -10.63264218	      1.45147716	      0.02533306	     19.27921293	     -0.00915433	      0.00000000	      2.46814017	     -0.69885197	      5.29717431	      0.72425077	      0.01264056	     18.49392623	     -4.16487212	      0.00000000	      0.04825827	      0.46951282	     -0.46521617	      0.08962044	      0.62445206	     -0.49429218	      0.07928352	      1.14157348	     -0.49429218	      0.05515438	      1.14157348	     -0.40706415	      0.04481263	      0.95743055	     -0.37798814	      0.02757478	      0.72727537	     -0.34891213	      0.34470403	      5.31122297	     -2.58739277	      0.00000000	      0.00000000	     27.28017244	     -0.71527569	     -0.77228651	      7.99986764	    -14.81057753	     52.72026996	     31.53293599	     69.83120237	      2.24723398	     -6.91066309	     10.44846226	     -8.05972846	     57.57367028	     34.35216273	     87.07586891	     -7.27062875	      9.30133366
      3.40740741	     -0.48273053	     -4.50999192	     89.85614414	      0.19551339	      0.62484600	      0.60583834	      3.89916465	      1.71395388	     -9.93552834	      1.35913713	      0.02372142	     19.14762676	     -0.66870344	      0.00000000	      2.80239400	     -0.43835158	      4.89131711	      0.75832023	      0.01323518	     17.95842922	     -4.50634735	      0.00000000	      0.09973642	      0.41808075	     -0.29802458	      0.18522050	      0.55604740	     -0.31665112	      0.16385696	      1.01652154	     -0.31665112	      0.11398875	      1.01652154	     -0.26077151	      0.09261524	      0.85255027	     -0.24214497	      0.05698939	      0.64760708	     -0.22351843	      0.71240725	      4.72941307	     -1.65752330	      0.00000000	      0.00000000	     27.55606133	     -0.92581602	     -2.08490140	      7.31178296	    -15.08907583	     51.06863771	     33.37874416	     70.05300266	      2.47094342	     -6.91051464	     11.81427308	     -7.96964531	     64.11434682	     32.20535130	     87.20287758	     -5.35376509	     10.03377086
